<svg width="24" height="24" viewBox="0 0 24 24" fill="none" xmlns="http://www.w3.org/2000/svg">
<mask id="mask0_327_3329" style="mask-type:alpha" maskUnits="userSpaceOnUse" x="0" y="0" width="24" height="24">
<rect width="24" height="24" fill="#D9D9D9"/>
</mask>
<g mask="url(#mask0_327_3329)">
<path d="M18.5 8.59999L17.45 6.24999L15.1 5.19999L17.45 4.12499L18.5 1.79999L19.55 4.12499L21.9 5.19999L19.55 6.24999L18.5 8.59999ZM18.5 22.2L17.45 19.875L15.1 18.8L17.45 17.75L18.5 15.4L19.55 17.75L21.9 18.8L19.55 19.875L18.5 22.2ZM8.87498 18.8L6.77498 14.125L2.09998 12L6.77498 9.87499L8.87498 5.19999L11 9.87499L15.675 12L11 14.125L8.87498 18.8ZM8.87498 15.15L9.87498 13L12.025 12L9.87498 11L8.87498 8.84999L7.87498 11L5.72498 12L7.87498 13L8.87498 15.15Z" fill="#E3E2E6"/>
</g>
</svg>
